<svg width="407" height="450" viewBox="0 0 407 450" fill="none" xmlns="http://www.w3.org/2000/svg">
<path d="M92.4008 157.34L76.9738 168.129L237.638 429.327L253.065 418.538L92.4008 157.34Z" fill="#E6E6E6"/>
<path d="M55.6732 59.0447L91.3664 117.072C92.0576 118.196 92.3019 119.566 92.0454 120.882C91.789 122.198 91.0529 123.351 89.999 124.088C88.9451 124.825 87.6598 125.086 86.4259 124.812C85.1919 124.539 84.1104 123.754 83.4192 122.63L42.3855 55.9204C36.8158 55.4244 31.2175 56.4048 26.0891 58.7742L70.797 131.457C71.4878 132.581 71.7317 133.951 71.4751 135.267C71.2185 136.582 70.4824 137.735 69.4288 138.472C68.3751 139.209 67.0901 139.469 65.8564 139.196C64.6226 138.923 63.5411 138.138 62.8497 137.015L18.1418 64.332C14.0603 68.4034 10.9865 73.4878 9.19393 79.1325L50.2276 145.842C50.9184 146.966 51.1622 148.336 50.9057 149.652C50.6491 150.967 49.913 152.12 48.8594 152.857C47.8057 153.594 46.5207 153.854 45.2869 153.581C44.0532 153.308 42.9717 152.523 42.2803 151.4L6.5871 93.3725C5.67034 109.552 10.6177 128.729 21.4601 146.356C41.6112 179.116 74.4817 194.11 94.8784 179.846C115.275 165.582 115.474 127.461 95.323 94.7007C84.4806 77.0738 69.9559 64.5946 55.6732 59.0447Z" fill="#E6E6E6"/>
<path d="M161.57 121.608H143.121V433.973H161.57V121.608Z" fill="#E6E6E6"/>
<path d="M152.066 141.876C176.458 141.876 196.232 110.116 196.232 70.9379C196.232 31.76 176.458 0 152.066 0C127.674 0 107.9 31.76 107.9 70.9379C107.9 110.116 127.674 141.876 152.066 141.876Z" fill="#E6E6E6"/>
<path d="M152.066 129.305C172.136 129.305 188.405 103.173 188.405 70.9379C188.405 38.7029 172.136 12.5713 152.066 12.5713C131.996 12.5713 115.727 38.7029 115.727 70.9379C115.727 103.173 131.996 129.305 152.066 129.305Z" fill="#CCCCCC"/>
<path d="M203.5 450C315.89 450 407 444.426 407 437.55C407 430.674 315.89 425.1 203.5 425.1C91.1101 425.1 0 430.674 0 437.55C0 444.426 91.1101 450 203.5 450Z" fill="#E6E6E6"/>
<path d="M323.849 437.367C247.585 422.71 169.478 422.71 93.2143 437.367C92.0028 437.601 90.758 437.549 89.5676 437.214C88.3772 436.879 87.2702 436.269 86.3248 435.429C85.3794 434.588 84.6186 433.536 84.0961 432.347C83.5736 431.158 83.3021 429.862 83.3008 428.549V317.134H333.762V428.549C333.761 429.862 333.49 431.158 332.967 432.347C332.445 433.536 331.684 434.588 330.738 435.429C329.793 436.269 328.686 436.879 327.496 437.214C326.305 437.549 325.06 437.601 323.849 437.367Z" fill="#F58700"/>
<path d="M310.841 234.87C305.057 234.865 299.314 235.889 293.848 237.902C285.875 219.463 273.134 203.831 257.122 192.841C241.109 181.851 222.489 175.959 203.447 175.856C184.404 175.753 165.729 181.444 149.613 192.261C133.497 203.078 120.609 218.572 112.462 236.925C104.439 234.525 95.9934 234.217 87.8355 236.025C79.6775 237.833 72.0466 241.705 65.5856 247.315C59.1245 252.926 54.0225 260.109 50.7094 268.261C47.3962 276.413 45.969 285.295 46.5479 294.158C47.1267 303.021 49.6948 311.606 54.0357 319.19C58.3765 326.773 64.3631 333.133 71.4911 337.734C78.6191 342.335 86.6797 345.043 94.994 345.628C103.308 346.213 111.633 344.659 119.266 341.096C128.44 356.003 140.971 368.222 155.715 376.635C170.458 385.049 186.943 389.39 203.664 389.262C220.386 389.133 236.811 384.54 251.439 375.901C266.067 367.262 278.431 354.853 287.404 339.807C294.414 343.58 302.134 345.611 309.985 345.748C317.837 345.886 325.615 344.125 332.737 340.598C339.859 337.072 346.139 331.871 351.107 325.387C356.074 318.902 359.6 311.302 361.419 303.157C363.238 295.012 363.304 286.534 361.611 278.358C359.917 270.182 356.509 262.521 351.643 255.95C346.776 249.38 340.577 244.07 333.51 240.419C326.443 236.768 318.693 234.871 310.841 234.87Z" fill="#F58700"/>
<path d="M103.427 282.56H102.309C102.271 266.687 105.566 251.006 111.951 236.667L112.962 237.178C106.647 251.357 103.389 266.863 103.427 282.56Z" fill="#3F3D56"/>
<path d="M303.573 282.56H302.455C302.489 267.225 299.38 252.067 293.345 238.148L294.361 237.649C300.464 251.724 303.608 267.052 303.573 282.56Z" fill="#3F3D56"/>
<path d="M83.4357 368.979L83.166 367.822C83.4815 367.738 115.258 359.417 161.827 355.288C204.808 351.477 269.551 350.558 333.899 367.822L333.626 368.978C269.436 351.757 204.834 352.672 161.943 356.474C115.458 360.594 83.7504 368.896 83.4357 368.979Z" fill="#3F3D56"/>
<path d="M83.4357 385.074L83.166 383.917C83.4815 383.834 115.258 375.512 161.827 371.383C204.808 367.572 269.551 366.653 333.899 383.917L333.626 385.074C269.436 367.852 204.834 368.768 161.943 372.569C115.458 376.689 83.7504 384.991 83.4357 385.074Z" fill="#3F3D56"/>
<path d="M83.4357 401.169L83.166 400.012C83.4815 399.929 115.258 391.607 161.827 387.478C204.808 383.667 269.551 382.748 333.899 400.013L333.626 401.169C269.436 383.947 204.834 384.863 161.943 388.664C115.458 392.784 83.7504 401.086 83.4357 401.169Z" fill="#3F3D56"/>
<path d="M289.186 313.651L275.64 308.74L288.644 237.963L279.704 237.097C270.986 244.229 259.376 247.025 244.483 244.897L268.325 283.318L256.168 292.468L217.387 242.868C215.639 240.632 214.681 237.814 214.681 234.903C214.681 232.204 215.504 229.579 217.026 227.423C218.548 225.267 220.686 223.697 223.118 222.95L264.532 210.231L313.028 216.008C320.36 227.927 320.647 236.216 309.485 238.608L289.186 313.651Z" fill="#2F2E41"/>
<path d="M275.321 341.184C273.921 341.089 272.562 340.644 271.353 339.884C270.144 339.124 269.121 338.071 268.366 336.81C267.61 335.549 267.145 334.116 267.007 332.627C266.868 331.139 267.061 329.636 267.57 328.242L274.304 309.777C277.725 302.867 282.42 303.732 287.964 309.777L290.673 318.251C290.896 318.948 290.985 319.687 290.933 320.422C290.882 321.157 290.692 321.874 290.374 322.528L283.81 336.06C283.014 337.701 281.788 339.059 280.28 339.968C278.773 340.878 277.05 341.301 275.321 341.184Z" fill="#2F2E41"/>
<path d="M257.814 317.004C256.414 316.909 255.055 316.464 253.846 315.704C252.637 314.944 251.614 313.891 250.859 312.63C250.104 311.369 249.638 309.936 249.5 308.447C249.361 306.958 249.554 305.456 250.063 304.061L256.797 285.596C260.218 278.687 264.913 279.552 270.457 285.596L273.166 294.07C273.389 294.768 273.478 295.507 273.426 296.242C273.375 296.977 273.185 297.693 272.867 298.348L266.303 311.88C265.507 313.52 264.281 314.878 262.773 315.788C261.266 316.698 259.543 317.12 257.814 317.004Z" fill="#2F2E41"/>
<path d="M266.428 142.632C274.808 142.632 281.6 135.389 281.6 126.455C281.6 117.52 274.808 110.277 266.428 110.277C258.049 110.277 251.257 117.52 251.257 126.455C251.257 135.389 258.049 142.632 266.428 142.632Z" fill="#FFB9B9"/>
<path d="M289.999 149.277L269.138 160.832L264.803 140.032L279.162 130.499L289.999 149.277Z" fill="#FFB9B9"/>
<path d="M315.195 218.897C294.379 212.193 275.492 208.719 261.823 213.986C266.534 199.853 257.838 178.272 248.276 156.21C252.402 150.459 258.98 148.231 266.428 147.254C274.578 153.564 280.26 149.514 284.581 139.743C294.003 139.34 303.083 142.898 311.944 148.988C305.017 172.645 306.264 195.941 315.195 218.897Z" fill="#3F3D56"/>
<path d="M261.552 217.453C258.265 219.519 255.231 222.999 252.34 227.275C247.455 224.086 243.156 220.456 239.769 216.137C237.398 213.076 235.782 209.432 235.066 205.536C234.351 201.639 234.558 197.614 235.671 193.825L244.929 161.741C245.698 159.077 247.192 156.715 249.222 154.957L250.444 153.899L262.635 178.454L250.444 202.72C251.99 207.14 256.546 212.245 261.552 217.453Z" fill="#3F3D56"/>
<path d="M265.748 241.915C264.643 242.452 263.435 242.708 262.221 242.661C261.007 242.615 259.82 242.269 258.753 241.649C257.687 241.029 256.77 240.153 256.076 239.09C255.381 238.027 254.929 236.807 254.753 235.525L252.738 220.816L259.782 216.772L268.722 229.251C269.436 230.247 269.931 231.403 270.168 232.631C270.406 233.86 270.381 235.13 270.095 236.346C269.81 237.563 269.27 238.696 268.518 239.66C267.765 240.624 266.818 241.394 265.748 241.915Z" fill="#FFB9B9"/>
<path d="M281.736 125.747L279.145 125.829L271.96 114.975C262.752 115.99 255.207 120.256 248.822 126.789L248.175 122.187C247.558 117.799 248.541 113.325 250.923 109.686C253.304 106.047 256.903 103.52 260.979 102.623H260.979C263.12 102.153 265.328 102.147 267.471 102.606C269.614 103.066 271.649 103.981 273.453 105.297C275.257 106.613 276.794 108.304 277.971 110.267C279.149 112.231 279.944 114.428 280.308 116.726L281.736 125.747Z" fill="#2F2E41"/>
<path d="M252.602 227.28C252.098 226.102 251.858 224.814 251.901 223.52C251.945 222.226 252.27 220.96 252.851 219.822C253.432 218.685 254.254 217.708 255.251 216.967C256.247 216.227 257.392 215.744 258.594 215.557L272.389 213.408L276.182 220.919L264.479 230.452C263.544 231.213 262.46 231.74 261.308 231.994C260.156 232.247 258.965 232.221 257.824 231.916C256.683 231.611 255.621 231.036 254.717 230.234C253.813 229.431 253.09 228.422 252.602 227.28Z" fill="#FFB9B9"/>
<path d="M317.824 213.901C304.699 214.988 290.37 219.351 275.369 225.541C275.183 220.793 273.568 216.235 270.763 212.542C284.388 208.715 296.751 204.225 304.358 197.231L299.752 160.254L309.777 148.121L311.506 149.083C312.942 149.878 314.205 150.987 315.213 152.337C316.222 153.687 316.953 155.247 317.359 156.918C321.591 174.473 323.471 191.293 322.179 207.121C322.346 208.622 321.996 210.136 321.195 211.383C320.394 212.63 319.196 213.525 317.824 213.901Z" fill="#3F3D56"/>
<path d="M53.6066 434.04C41.4008 442.18 29.1951 442.177 16.9893 434.03C16.6029 433.776 16.2891 433.414 16.082 432.984C15.8749 432.553 15.7824 432.07 15.8146 431.588L19.6232 378.795H50.428L54.7791 431.569C54.8167 432.056 54.727 432.545 54.52 432.981C54.3131 433.417 53.9969 433.784 53.6066 434.04Z" fill="#3F3D56"/>
<path d="M34.8835 385.364C43.4685 385.364 50.428 382.69 50.428 379.392C50.428 376.094 43.4685 373.42 34.8835 373.42C26.2985 373.42 19.339 376.094 19.339 379.392C19.339 382.69 26.2985 385.364 34.8835 385.364Z" fill="#3F3D56"/>
<path d="M47.0674 377.376C38.9675 383.452 31.1263 383.452 23.5438 377.376V367.821H47.0674V377.376Z" fill="#F58700"/>
<path d="M35.3056 372.598C41.8015 372.598 47.0674 370.459 47.0674 367.821C47.0674 365.182 41.8015 363.043 35.3056 363.043C28.8097 363.043 23.5438 365.182 23.5438 367.821C23.5438 370.459 28.8097 372.598 35.3056 372.598Z" fill="#F58700"/>
<path d="M35.8657 367.821C36.4843 367.821 36.9859 367.553 36.9859 367.224C36.9859 366.894 36.4843 366.626 35.8657 366.626C35.247 366.626 34.7455 366.894 34.7455 367.224C34.7455 367.553 35.247 367.821 35.8657 367.821Z" fill="#E6E6E6"/>
<path d="M41.1551 367.821C41.7737 367.821 42.2752 367.553 42.2752 367.224C42.2752 366.894 41.7737 366.626 41.1551 366.626C40.5364 366.626 40.0349 366.894 40.0349 367.224C40.0349 367.553 40.5364 367.821 41.1551 367.821Z" fill="#E6E6E6"/>
<path d="M38.5104 369.231C39.129 369.231 39.6306 368.963 39.6306 368.634C39.6306 368.304 39.129 368.036 38.5104 368.036C37.8917 368.036 37.3902 368.304 37.3902 368.634C37.3902 368.963 37.8917 369.231 38.5104 369.231Z" fill="#E6E6E6"/>
<path d="M27.9316 369.231C28.5503 369.231 29.0518 368.963 29.0518 368.634C29.0518 368.304 28.5503 368.036 27.9316 368.036C27.3129 368.036 26.8114 368.304 26.8114 368.634C26.8114 368.963 27.3129 369.231 27.9316 369.231Z" fill="#E6E6E6"/>
<path d="M30.5763 367.821C31.195 367.821 31.6965 367.553 31.6965 367.224C31.6965 366.894 31.195 366.626 30.5763 366.626C29.9576 366.626 29.4561 366.894 29.4561 367.224C29.4561 367.553 29.9576 367.821 30.5763 367.821Z" fill="#E6E6E6"/>
<path d="M33.221 369.936C33.8396 369.936 34.3412 369.668 34.3412 369.339C34.3412 369.009 33.8396 368.741 33.221 368.741C32.6023 368.741 32.1008 369.009 32.1008 369.339C32.1008 369.668 32.6023 369.936 33.221 369.936Z" fill="#E6E6E6"/>
<path d="M391.841 434.04C379.636 442.18 367.43 442.177 355.224 434.03C354.838 433.776 354.524 433.414 354.317 432.984C354.11 432.553 354.017 432.07 354.049 431.588L357.858 378.795H388.663L393.014 431.569C393.052 432.056 392.962 432.545 392.755 432.981C392.548 433.417 392.232 433.784 391.841 434.04Z" fill="#3F3D56"/>
<path d="M373.118 385.364C381.703 385.364 388.663 382.69 388.663 379.392C388.663 376.094 381.703 373.42 373.118 373.42C364.533 373.42 357.574 376.094 357.574 379.392C357.574 382.69 364.533 385.364 373.118 385.364Z" fill="#3F3D56"/>
<path d="M385.302 377.376C377.202 383.452 369.361 383.452 361.779 377.376V367.821H385.302V377.376Z" fill="#F58700"/>
<path d="M373.54 372.598C380.036 372.598 385.302 370.459 385.302 367.821C385.302 365.182 380.036 363.043 373.54 363.043C367.045 363.043 361.779 365.182 361.779 367.821C361.779 370.459 367.045 372.598 373.54 372.598Z" fill="#F58700"/>
<path d="M374.101 367.821C374.719 367.821 375.221 367.553 375.221 367.224C375.221 366.894 374.719 366.626 374.101 366.626C373.482 366.626 372.98 366.894 372.98 367.224C372.98 367.553 373.482 367.821 374.101 367.821Z" fill="#E6E6E6"/>
<path d="M379.39 367.821C380.009 367.821 380.51 367.553 380.51 367.224C380.51 366.894 380.009 366.626 379.39 366.626C378.771 366.626 378.27 366.894 378.27 367.224C378.27 367.553 378.771 367.821 379.39 367.821Z" fill="#E6E6E6"/>
<path d="M376.745 369.231C377.364 369.231 377.865 368.963 377.865 368.634C377.865 368.304 377.364 368.036 376.745 368.036C376.127 368.036 375.625 368.304 375.625 368.634C375.625 368.963 376.127 369.231 376.745 369.231Z" fill="#E6E6E6"/>
<path d="M366.166 369.231C366.785 369.231 367.287 368.963 367.287 368.634C367.287 368.304 366.785 368.036 366.166 368.036C365.548 368.036 365.046 368.304 365.046 368.634C365.046 368.963 365.548 369.231 366.166 369.231Z" fill="#E6E6E6"/>
<path d="M368.811 367.821C369.43 367.821 369.931 367.553 369.931 367.224C369.931 366.894 369.43 366.626 368.811 366.626C368.193 366.626 367.691 366.894 367.691 367.224C367.691 367.553 368.193 367.821 368.811 367.821Z" fill="#E6E6E6"/>
<path d="M371.456 369.936C372.075 369.936 372.576 369.668 372.576 369.339C372.576 369.009 372.075 368.741 371.456 368.741C370.837 368.741 370.336 369.009 370.336 369.339C370.336 369.668 370.837 369.936 371.456 369.936Z" fill="#E6E6E6"/>
</svg>
