<svg width="1152" height="589" viewBox="0 0 1152 589" fill="none" xmlns="http://www.w3.org/2000/svg">
<rect width="1152" height="589" fill="url(#paint0_linear)"/>
<path d="M592.814 162.81C342.705 142.907 298.817 33.3103 308.137 -19H1152V647H882.574C728.374 645.724 442.85 622.886 534.353 541.741C648.732 440.31 783.445 514.948 826.655 442.224C869.865 369.5 905.45 187.69 592.814 162.81Z" fill="#F8A949" fill-opacity="0.7"/>
<ellipse cx="1006.5" cy="99" rx="197.5" ry="191" fill="#F58700" fill-opacity="0.66"/>
<ellipse cx="109.5" cy="643" rx="197.5" ry="191" fill="#F58700" fill-opacity="0.66"/>
<path d="M753.909 256.753L739.733 266.679L887.37 506.981L901.546 497.055L753.909 256.753Z" fill="#E6E6E6"/>
<path d="M720.159 166.321L752.958 219.707C753.594 220.74 753.818 222.001 753.582 223.212C753.347 224.422 752.67 225.483 751.702 226.161C750.733 226.839 749.552 227.079 748.418 226.827C747.284 226.576 746.291 225.854 745.655 224.82L707.949 163.447C702.831 162.99 697.686 163.892 692.974 166.072L734.057 232.941C734.691 233.975 734.916 235.235 734.68 236.445C734.444 237.656 733.768 238.716 732.799 239.394C731.831 240.072 730.65 240.312 729.517 240.06C728.383 239.809 727.389 239.087 726.754 238.054L685.671 171.185C681.92 174.931 679.096 179.609 677.448 184.802L715.155 246.175C715.79 247.209 716.014 248.469 715.778 249.68C715.542 250.89 714.866 251.95 713.898 252.628C712.93 253.306 711.749 253.546 710.615 253.295C709.481 253.043 708.488 252.322 707.852 251.288L675.053 197.903C674.211 212.788 678.757 230.431 688.72 246.648C707.237 276.787 737.443 290.581 756.186 277.458C774.928 264.335 775.111 229.264 756.594 199.125C746.631 182.908 733.284 171.427 720.159 166.321Z" fill="#E6E6E6"/>
<path d="M817.47 223.879H800.516V511.255H817.47V223.879Z" fill="#E6E6E6"/>
<path d="M808.736 242.526C831.151 242.526 849.321 213.307 849.321 177.263C849.321 141.219 831.151 112 808.736 112C786.322 112 768.151 141.219 768.151 177.263C768.151 213.307 786.322 242.526 808.736 242.526Z" fill="#E6E6E6"/>
<path d="M808.736 230.96C827.179 230.96 842.129 206.919 842.129 177.263C842.129 147.607 827.179 123.566 808.736 123.566C790.294 123.566 775.343 147.607 775.343 177.263C775.343 206.919 790.294 230.96 808.736 230.96Z" fill="#CCCCCC"/>
<path d="M856 526C959.277 526 1043 520.872 1043 514.546C1043 508.22 959.277 503.092 856 503.092C752.723 503.092 669 508.22 669 514.546C669 520.872 752.723 526 856 526Z" fill="#E6E6E6"/>
<path d="M966.591 514.378C896.511 500.893 824.737 500.893 754.656 514.378C753.543 514.593 752.399 514.545 751.305 514.237C750.211 513.929 749.194 513.368 748.325 512.594C747.457 511.821 746.758 510.853 746.277 509.759C745.797 508.666 745.548 507.473 745.547 506.265V403.764H975.701V506.265C975.699 507.473 975.45 508.666 974.97 509.759C974.49 510.853 973.791 511.821 972.922 512.594C972.053 513.368 971.036 513.929 969.942 514.237C968.848 514.545 967.704 514.593 966.591 514.378V514.378Z" fill="#F58700"/>
<path d="M954.637 328.081C949.323 328.075 944.045 329.018 939.022 330.87C931.696 313.906 919.988 299.524 905.274 289.413C890.56 279.303 873.45 273.882 855.951 273.787C838.452 273.693 821.291 278.929 806.482 288.881C791.673 298.832 779.83 313.087 772.344 329.971C764.971 327.763 757.21 327.479 749.714 329.143C742.217 330.806 735.205 334.369 729.268 339.53C723.331 344.692 718.642 351.3 715.598 358.8C712.553 366.3 711.242 374.471 711.774 382.625C712.306 390.779 714.665 398.677 718.654 405.654C722.643 412.631 728.144 418.483 734.695 422.716C741.245 426.949 748.652 429.439 756.292 429.977C763.932 430.516 771.581 429.086 778.596 425.809C787.026 439.523 798.541 450.764 812.089 458.505C825.637 466.245 840.785 470.239 856.151 470.121C871.517 470.003 886.61 465.777 900.052 457.829C913.494 449.881 924.856 438.464 933.101 424.622C939.542 428.093 946.637 429.962 953.851 430.089C961.066 430.215 968.214 428.595 974.758 425.35C981.303 422.106 987.074 417.322 991.639 411.356C996.204 405.39 999.443 398.398 1001.11 390.905C1002.79 383.411 1002.85 375.611 1001.29 368.089C999.735 360.567 996.603 353.519 992.131 347.474C987.659 341.429 981.962 336.544 975.469 333.185C968.975 329.826 961.853 328.081 954.637 328.081V328.081Z" fill="#F58700"/>
<path d="M764.041 371.955H763.014C762.979 357.352 766.006 342.925 771.874 329.734L772.803 330.204C767 343.248 764.006 357.514 764.041 371.955V371.955Z" fill="#3F3D56"/>
<path d="M947.959 371.955H946.931C946.963 357.847 944.106 343.902 938.561 331.096L939.494 330.637C945.102 343.586 947.991 357.688 947.959 371.955V371.955Z" fill="#3F3D56"/>
<path d="M745.671 451.461L745.423 450.396C745.713 450.319 774.913 442.663 817.706 438.865C857.202 435.359 916.696 434.513 975.826 450.397L975.575 451.46C916.59 435.616 857.226 436.458 817.812 439.956C775.096 443.746 745.96 451.384 745.671 451.461Z" fill="#3F3D56"/>
<path d="M745.671 466.268L745.423 465.204C745.713 465.127 774.913 457.471 817.706 453.672C857.202 450.166 916.696 449.321 975.826 465.204L975.575 466.268C916.59 450.424 857.226 451.267 817.812 454.764C775.096 458.554 745.96 466.192 745.671 466.268Z" fill="#3F3D56"/>
<path d="M745.671 481.076L745.423 480.011C745.713 479.935 774.913 472.278 817.706 468.48C857.202 464.974 916.696 464.128 975.826 480.012L975.575 481.075C916.59 465.231 857.226 466.074 817.812 469.571C775.096 473.361 745.96 480.999 745.671 481.076Z" fill="#3F3D56"/>
<path d="M934.739 400.558L922.291 396.04L934.241 330.926L926.025 330.129C918.014 336.691 907.346 339.263 893.66 337.305L915.569 372.652L904.398 381.071L868.761 335.438C867.154 333.382 866.275 330.789 866.275 328.111C866.275 325.628 867.031 323.213 868.429 321.229C869.828 319.246 871.793 317.801 874.027 317.114L912.083 305.412L956.647 310.728C963.385 321.693 963.648 329.319 953.392 331.519L934.739 400.558Z" fill="#2F2E41"/>
<path d="M921.998 425.889C920.711 425.802 919.462 425.393 918.351 424.693C917.241 423.994 916.3 423.025 915.606 421.865C914.912 420.705 914.484 419.387 914.357 418.017C914.23 416.647 914.408 415.265 914.875 413.982L921.063 396.994C924.207 390.638 928.521 391.433 933.615 396.994L936.105 404.79C936.31 405.432 936.391 406.112 936.344 406.788C936.297 407.464 936.122 408.124 935.83 408.726L929.798 421.175C929.067 422.685 927.94 423.934 926.555 424.771C925.17 425.608 923.587 425.996 921.998 425.889V425.889Z" fill="#2F2E41"/>
<path d="M905.911 403.643C904.624 403.556 903.374 403.147 902.264 402.448C901.153 401.748 900.213 400.779 899.519 399.619C898.825 398.459 898.397 397.141 898.27 395.771C898.143 394.402 898.32 393.019 898.787 391.736L904.976 374.749C908.119 368.392 912.433 369.188 917.528 374.749L920.017 382.545C920.222 383.187 920.304 383.866 920.256 384.542C920.209 385.219 920.034 385.878 919.743 386.48L913.711 398.93C912.979 400.439 911.852 401.688 910.467 402.525C909.082 403.362 907.499 403.751 905.911 403.643Z" fill="#2F2E41"/>
<path d="M913.826 243.222C921.526 243.222 927.768 236.558 927.768 228.338C927.768 220.119 921.526 213.455 913.826 213.455C906.126 213.455 899.884 220.119 899.884 228.338C899.884 236.558 906.126 243.222 913.826 243.222Z" fill="#FFB9B9"/>
<path d="M935.486 249.335L916.316 259.965L912.332 240.83L925.527 232.059L935.486 249.335Z" fill="#FFB9B9"/>
<path d="M958.639 313.385C939.511 307.218 922.154 304.022 909.594 308.867C913.923 295.865 905.932 276.01 897.146 255.713C900.937 250.422 906.982 248.373 913.826 247.474C921.315 253.279 926.537 249.553 930.506 240.564C939.165 240.193 947.509 243.466 955.651 249.069C949.286 270.833 950.432 292.266 958.639 313.385Z" fill="#3F3D56"/>
<path d="M909.345 312.056C906.324 313.957 903.537 317.159 900.88 321.093C896.391 318.159 892.44 314.819 889.328 310.846C887.15 308.03 885.664 304.677 885.007 301.093C884.349 297.508 884.54 293.805 885.563 290.319L894.07 260.802C894.777 258.35 896.15 256.178 898.015 254.561L899.138 253.587L910.341 276.177L899.138 298.502C900.558 302.569 904.745 307.265 909.345 312.056Z" fill="#3F3D56"/>
<path d="M913.201 334.561C912.185 335.056 911.076 335.291 909.96 335.249C908.845 335.206 907.754 334.887 906.773 334.317C905.793 333.747 904.951 332.941 904.313 331.963C903.675 330.985 903.259 329.862 903.097 328.683L901.246 315.151L907.719 311.43L915.934 322.911C916.59 323.828 917.044 324.891 917.263 326.021C917.481 327.151 917.458 328.319 917.196 329.439C916.933 330.558 916.438 331.6 915.746 332.487C915.054 333.374 914.185 334.083 913.201 334.561V334.561Z" fill="#FFB9B9"/>
<path d="M927.892 227.687L925.512 227.763L918.909 217.777C910.448 218.711 903.515 222.635 897.648 228.646L897.053 224.412C896.486 220.375 897.389 216.259 899.578 212.911C901.766 209.563 905.073 207.238 908.819 206.414H908.819C910.786 205.981 912.815 205.975 914.785 206.398C916.754 206.82 918.623 207.662 920.281 208.873C921.939 210.084 923.351 211.64 924.433 213.446C925.515 215.253 926.245 217.273 926.58 219.388L927.892 227.687Z" fill="#2F2E41"/>
<path d="M901.12 321.098C900.657 320.014 900.437 318.829 900.477 317.638C900.517 316.448 900.815 315.283 901.35 314.237C901.884 313.19 902.639 312.291 903.555 311.61C904.471 310.929 905.523 310.485 906.627 310.312L919.303 308.336L922.789 315.246L912.034 324.016C911.175 324.716 910.18 325.201 909.121 325.434C908.062 325.667 906.968 325.643 905.919 325.363C904.871 325.082 903.895 324.553 903.064 323.815C902.233 323.077 901.569 322.148 901.12 321.098V321.098Z" fill="#FFB9B9"/>
<path d="M961.054 308.789C948.994 309.789 935.826 313.803 922.042 319.498C921.871 315.13 920.387 310.936 917.81 307.538C930.329 304.018 941.69 299.887 948.681 293.452L944.448 259.434L953.66 248.271L955.249 249.156C956.568 249.888 957.729 250.908 958.656 252.15C959.582 253.392 960.254 254.827 960.627 256.364C964.516 272.515 966.244 287.989 965.056 302.552C965.21 303.932 964.888 305.326 964.152 306.473C963.416 307.62 962.315 308.443 961.054 308.789V308.789Z" fill="#3F3D56"/>
<path d="M718.26 511.317C707.044 518.806 695.828 518.802 684.612 511.307C684.257 511.074 683.968 510.741 683.778 510.345C683.588 509.949 683.503 509.505 683.532 509.061L687.032 460.491H715.339L719.338 509.044C719.372 509.492 719.29 509.941 719.099 510.343C718.909 510.744 718.619 511.081 718.26 511.317V511.317Z" fill="#3F3D56"/>
<path d="M701.055 466.535C708.944 466.535 715.339 464.075 715.339 461.041C715.339 458.006 708.944 455.546 701.055 455.546C693.166 455.546 686.771 458.006 686.771 461.041C686.771 464.075 693.166 466.535 701.055 466.535Z" fill="#3F3D56"/>
<path d="M712.251 459.186C704.808 464.776 697.603 464.776 690.635 459.186V450.395H712.251V459.186Z" fill="#F58700"/>
<path d="M701.443 454.791C707.412 454.791 712.251 452.823 712.251 450.395C712.251 447.968 707.412 446 701.443 446C695.474 446 690.635 447.968 690.635 450.395C690.635 452.823 695.474 454.791 701.443 454.791Z" fill="#F58700"/>
<path d="M701.958 450.395C702.526 450.395 702.987 450.149 702.987 449.846C702.987 449.542 702.526 449.296 701.958 449.296C701.389 449.296 700.928 449.542 700.928 449.846C700.928 450.149 701.389 450.395 701.958 450.395Z" fill="#E6E6E6"/>
<path d="M706.818 450.395C707.387 450.395 707.848 450.149 707.848 449.846C707.848 449.542 707.387 449.296 706.818 449.296C706.25 449.296 705.789 449.542 705.789 449.846C705.789 450.149 706.25 450.395 706.818 450.395Z" fill="#E6E6E6"/>
<path d="M704.388 451.692C704.956 451.692 705.417 451.446 705.417 451.143C705.417 450.839 704.956 450.593 704.388 450.593C703.819 450.593 703.359 450.839 703.359 451.143C703.359 451.446 703.819 451.692 704.388 451.692Z" fill="#E6E6E6"/>
<path d="M694.667 451.692C695.235 451.692 695.696 451.446 695.696 451.143C695.696 450.839 695.235 450.593 694.667 450.593C694.098 450.593 693.638 450.839 693.638 451.143C693.638 451.446 694.098 451.692 694.667 451.692Z" fill="#E6E6E6"/>
<path d="M697.097 450.395C697.666 450.395 698.126 450.149 698.126 449.846C698.126 449.542 697.666 449.296 697.097 449.296C696.529 449.296 696.068 449.542 696.068 449.846C696.068 450.149 696.529 450.395 697.097 450.395Z" fill="#E6E6E6"/>
<path d="M699.527 452.341C700.096 452.341 700.557 452.095 700.557 451.791C700.557 451.488 700.096 451.242 699.527 451.242C698.959 451.242 698.498 451.488 698.498 451.791C698.498 452.095 698.959 452.341 699.527 452.341Z" fill="#E6E6E6"/>
<path d="M1029.07 511.317C1017.85 518.806 1006.64 518.802 995.422 511.307C995.067 511.074 994.779 510.741 994.589 510.345C994.398 509.949 994.313 509.505 994.343 509.061L997.843 460.491H1026.15L1030.15 509.044C1030.18 509.492 1030.1 509.941 1029.91 510.343C1029.72 510.744 1029.43 511.081 1029.07 511.317V511.317Z" fill="#3F3D56"/>
<path d="M1011.87 466.535C1019.75 466.535 1026.15 464.075 1026.15 461.041C1026.15 458.006 1019.75 455.546 1011.87 455.546C1003.98 455.546 997.581 458.006 997.581 461.041C997.581 464.075 1003.98 466.535 1011.87 466.535Z" fill="#3F3D56"/>
<path d="M1023.06 459.186C1015.62 464.776 1008.41 464.776 1001.45 459.186V450.395H1023.06V459.186Z" fill="#F58700"/>
<path d="M1012.25 454.791C1018.22 454.791 1023.06 452.823 1023.06 450.395C1023.06 447.968 1018.22 446 1012.25 446C1006.28 446 1001.45 447.968 1001.45 450.395C1001.45 452.823 1006.28 454.791 1012.25 454.791Z" fill="#F58700"/>
<path d="M1012.77 450.395C1013.34 450.395 1013.8 450.149 1013.8 449.846C1013.8 449.542 1013.34 449.296 1012.77 449.296C1012.2 449.296 1011.74 449.542 1011.74 449.846C1011.74 450.149 1012.2 450.395 1012.77 450.395Z" fill="#E6E6E6"/>
<path d="M1017.63 450.395C1018.2 450.395 1018.66 450.149 1018.66 449.846C1018.66 449.542 1018.2 449.296 1017.63 449.296C1017.06 449.296 1016.6 449.542 1016.6 449.846C1016.6 450.149 1017.06 450.395 1017.63 450.395Z" fill="#E6E6E6"/>
<path d="M1015.2 451.692C1015.77 451.692 1016.23 451.446 1016.23 451.143C1016.23 450.839 1015.77 450.593 1015.2 450.593C1014.63 450.593 1014.17 450.839 1014.17 451.143C1014.17 451.446 1014.63 451.692 1015.2 451.692Z" fill="#E6E6E6"/>
<path d="M1005.48 451.692C1006.05 451.692 1006.51 451.446 1006.51 451.143C1006.51 450.839 1006.05 450.593 1005.48 450.593C1004.91 450.593 1004.45 450.839 1004.45 451.143C1004.45 451.446 1004.91 451.692 1005.48 451.692Z" fill="#E6E6E6"/>
<path d="M1007.91 450.395C1008.48 450.395 1008.94 450.149 1008.94 449.846C1008.94 449.542 1008.48 449.296 1007.91 449.296C1007.34 449.296 1006.88 449.542 1006.88 449.846C1006.88 450.149 1007.34 450.395 1007.91 450.395Z" fill="#E6E6E6"/>
<path d="M1010.34 452.341C1010.91 452.341 1011.37 452.095 1011.37 451.791C1011.37 451.488 1010.91 451.242 1010.34 451.242C1009.77 451.242 1009.31 451.488 1009.31 451.791C1009.31 452.095 1009.77 452.341 1010.34 452.341Z" fill="#E6E6E6"/>
<defs>
<linearGradient id="paint0_linear" x1="576" y1="0" x2="576" y2="589" gradientUnits="userSpaceOnUse">
<stop stop-color="white" stop-opacity="0"/>
<stop offset="1" stop-color="#FF8D00" stop-opacity="0.2"/>
</linearGradient>
</defs>
</svg>
