<svg width="52" height="62" viewBox="0 0 52 62" fill="none" xmlns="http://www.w3.org/2000/svg">
<path d="M8.09298 45.8786C9.29292 45.8667 10.3512 46.0963 11.268 46.5672C12.2327 47.0377 13.0308 47.6538 13.6624 48.4156C14.3415 49.1289 14.8535 49.9399 15.1986 50.8485C15.5431 51.7091 15.7194 52.5474 15.7275 53.3634C15.7379 54.4193 15.5319 55.4294 15.1095 56.3937C14.735 57.3574 14.1914 58.2028 13.4785 58.9299C12.8137 59.6566 12.0034 60.2406 11.0478 60.6821C10.1401 61.1231 9.18226 61.3486 8.17431 61.3586C6.87838 61.3714 5.74829 61.1666 4.78406 60.7441C3.8203 60.3697 3.02311 59.8495 2.39249 59.1838C1.76139 58.47 1.27356 57.6828 0.929023 56.8221C0.632479 55.961 0.47969 55.0745 0.470657 54.1625C0.461148 53.2026 0.619631 52.241 0.946106 51.2777C1.2721 50.2664 1.74329 49.3737 2.35965 48.5996C3.02353 47.7769 3.83307 47.1209 4.78827 46.6314C5.74347 46.1419 6.84504 45.891 8.09298 45.8786ZM42.6222 0.46239C44.3501 0.445274 45.8392 0.550529 47.0895 0.778156C48.3874 0.95731 49.5902 1.23341 50.6979 1.60646C50.706 2.42241 50.7146 3.28637 50.7236 4.19833C50.7806 5.10981 50.8144 6.09352 50.8248 7.14947C50.8353 8.20542 50.8225 9.3336 50.7864 10.534C50.7978 11.686 50.8085 12.7659 50.8184 13.7739C48.9831 12.64 46.7935 12.0856 44.2497 12.1108C41.8498 12.1346 39.8384 12.6106 38.2155 13.5387C36.6401 14.4183 35.3554 15.5591 34.3612 16.961C33.415 18.3625 32.7343 19.9053 32.319 21.5895C31.9511 23.2252 31.7746 24.787 31.7893 26.275C31.8093 28.2909 32.1401 30.1837 32.7816 31.9534C33.4232 33.7231 34.3026 35.2745 35.4199 36.6075C36.5846 37.892 37.9148 38.9109 39.4103 39.6641C40.9539 40.4169 42.6136 40.7845 44.3895 40.7669C45.2055 40.7588 46.2362 40.6286 47.4818 40.3762C48.7753 40.1234 49.9708 39.6555 51.0681 38.9726C51.0847 40.6525 51.1021 42.4045 51.1201 44.2284C51.1862 46.0518 51.2278 47.8275 51.2449 49.5554C51.263 51.3793 51.2565 53.1555 51.2257 54.8838C51.2428 56.6118 51.2599 58.3397 51.277 60.0676C48.5949 60.6702 45.8618 60.9853 43.078 61.0128C38.8542 61.0547 35.0555 60.3963 31.6819 59.0376C28.3562 57.6785 25.5046 55.7147 23.1271 53.1461C20.797 50.529 18.9897 47.3788 17.7052 43.6953C16.4682 39.9634 15.8268 35.7935 15.7812 31.1858C15.7375 26.77 16.2733 22.7085 17.3886 19.0012C18.5034 15.246 20.1755 12.0133 22.4048 9.30308C24.6816 6.54439 27.4925 4.40445 30.8376 2.88324C34.2302 1.31355 38.1584 0.506606 42.6222 0.46239Z" fill="#F58700"/>
</svg>
